# File created by Blade
# Date/Time:  Thu Jan 22 16:10:14 2015
# Frame Rate: 120.000 fps
#------------------------------------------------------
:FULLY-SPECIFIED
:DEGREES
2195
root 10.936191 27.362840 -0.024223 57.498540 31.091940 -0.566474
RightUpLeg -38.058791 -49.290013 -6.291475
RightLeg -5.861585 -0.000000 0.000000
RightFoot -5.155252 -30.843232 46.586742
RightToeBase 14.020575 -0.000000 -0.000000
LeftUpLeg -111.956356 5.944917 -8.333380
LeftLeg 88.738437 -0.000000 -0.000000
LeftFoot -36.521252 3.732355 -18.382581
LeftToeBase 4.644515 -0.000000 -0.000000
Spine 54.078383 13.167748 -23.932142
RightShoulder 8.000466 3.239126 -55.274717
RightArm 72.134059 30.744669 36.748494
RightForeArm -15.957904 -0.000000 22.978193
RightHand 28.654016 -0.000000 -56.332788
RightHandThumb1 -24.326973 -0.000000 -32.862282
LeftShoulder -17.095853 30.616358 6.887340
LeftArm 46.871405 -28.638373 -70.877876
LeftForeArm 14.685558 -0.000000 53.145688
LeftHand -27.592762 -0.000000 43.814234
LeftHandThumb1 -26.253704 0.000000 33.147579
Head -15.514527 20.794191 -29.069382
2196
root 10.932206 27.361290 0.000095 57.627229 31.103198 -0.411279
RightUpLeg -37.961839 -49.342422 -6.461346
RightLeg -5.827563 -0.000000 0.000000
RightFoot -5.289185 -30.757526 46.750660
RightToeBase 14.234257 -0.000000 -0.000000
LeftUpLeg -111.940947 5.863828 -8.383668
LeftLeg 88.717679 -0.000000 -0.000000
LeftFoot -36.539592 3.672988 -18.416922
LeftToeBase 4.675831 -0.000000 -0.000000
Spine 54.150727 13.631261 -23.434002
RightShoulder 7.747270 2.478797 -55.210694
RightArm 72.059042 30.882536 36.900688
RightForeArm -16.005631 -0.000000 23.079981
RightHand 28.794236 -0.000000 -56.623061
RightHandThumb1 -24.326973 -0.000000 -32.862282
LeftShoulder -17.790132 31.070580 6.516361
LeftArm 46.190361 -28.248628 -71.382398
LeftForeArm 14.733395 -0.000000 52.162176
LeftHand -27.698617 -0.000000 43.495469
LeftHandThumb1 -26.253704 0.000000 33.147579
Head -15.030373 20.085936 -28.810168
2197
root 10.934305 27.358530 0.025583 57.729806 31.106064 -0.166013
RightUpLeg -37.752696 -49.489078 -6.748604
RightLeg -5.817424 -0.000000 0.000000
RightFoot -5.361327 -30.663942 46.866688
RightToeBase 13.829957 -0.000000 -0.000000
LeftUpLeg -111.823120 5.722713 -8.480414
LeftLeg 88.682035 -0.000000 -0.000000
LeftFoot -36.560969 3.647452 -18.436114
LeftToeBase 4.637546 -0.000000 -0.000000
Spine 54.315515 14.021267 -23.003100
RightShoulder 7.565996 1.861614 -55.204297
RightArm 71.812655 30.969123 36.961747
RightForeArm -15.967465 -0.000000 23.210930
RightHand 28.881477 -0.000000 -56.947551
RightHandThumb1 -24.326973 -0.000000 -32.862282
LeftShoulder -18.670637 31.766146 5.924590
LeftArm 45.899253 -28.014340 -72.016017
LeftForeArm 14.804662 0.000000 51.103125
LeftHand -27.873587 -0.000000 42.557961
LeftHandThumb1 -26.253704 0.000000 33.147579
Head -14.530605 19.381973 -28.595536
2198
root 10.933096 27.357133 0.050138 57.874868 31.112998 0.083168
RightUpLeg -37.575327 -49.603804 -7.030211
RightLeg -5.792649 -0.000000 0.000000
RightFoot -5.550813 -30.540475 47.128840
RightToeBase 13.896821 -0.000000 -0.000000
LeftUpLeg -111.749445 5.583199 -8.597658
LeftLeg 88.637855 -0.000000 -0.000000
LeftFoot -36.574603 3.591700 -18.451402
LeftToeBase 4.744735 -0.000000 -0.000000
Spine 54.471698 14.356651 -22.608883
RightShoulder 7.300511 1.166182 -55.219840
RightArm 71.726354 31.096316 37.015504
RightForeArm -15.818249 0.000000 23.279841
RightHand 29.000661 -0.000000 -57.294550
RightHandThumb1 -24.326973 -0.000000 -32.862282
LeftShoulder -19.521173 32.215943 5.384784
LeftArm 45.298351 -27.792931 -72.477842
LeftForeArm 14.870900 0.000000 49.982016
LeftHand -28.056341 -0.000000 41.761074
LeftHandThumb1 -26.253704 0.000000 33.147579
Head -14.153938 18.671081 -28.471829
